<svg xmlns="http://www.w3.org/2000/svg" xmlns:xlink="http://www.w3.org/1999/xlink" fill="none" version="1.1" width="12" height="12" viewBox="0 0 12 12"><g transform="matrix(1,0,0,-1,0,24)"><path d="M5.46967,12.21967C5.76257,11.9267767,6.23744,11.9267767,6.53033,12.21967C6.53033,12.21967,11.7803,17.46967,11.7803,17.46967C12.0732,17.76257,12.0732,18.23744,11.7803,18.53033C11.4875,18.82322,11.0126,18.82322,10.7197,18.53033C10.7197,18.53033,6.75,14.56066,6.75,14.56066C6.75,14.56066,6.75,23.25,6.75,23.25C6.75,23.6642,6.41421,24,6,24C5.58579,24,5.25,23.6642,5.25,23.25C5.25,23.25,5.25,14.56066,5.25,14.56066C5.25,14.56066,1.28033,18.53033,1.28033,18.53033C0.987435,18.82322,0.512563,18.82322,0.21967,18.53033C-0.0732233,18.23744,-0.0732233,17.76257,0.21967,17.46967C0.21967,17.46967,5.46967,12.21967,5.46967,12.21967C5.46967,12.21967,5.46967,12.21967,5.46967,12.21967Z" fill-rule="evenodd" fill="#FFFFFF" fill-opacity="1"/></g></svg>