<svg xmlns="http://www.w3.org/2000/svg" xmlns:xlink="http://www.w3.org/1999/xlink" fill="none" version="1.1" width="16" height="16" viewBox="0 0 16 16"><defs><clipPath id="master_svg0_1_06805"><rect x="0" y="0" width="16" height="16" rx="0"/></clipPath></defs><g clip-path="url(#master_svg0_1_06805)"><g><path d="M7.960000120162964,15.91200006866455C5.752000120162964,15.91200006866455,3.6240001201629637,14.97600006866455,2.1360001201629637,13.34400006866455L1.8240001201629639,13.00800006866455L2.1360001201629637,12.67200006866455C3.6320001201629637,11.04000006866455,5.752000120162964,10.10400006866455,7.960000120162964,10.10400006866455C10.168000120162963,10.10400006866455,12.296000120162963,11.04000006866455,13.784000120162965,12.67200006866455L14.096000120162964,13.00800006866455L13.784000120162965,13.34400006866455C12.296000120162963,14.97600006866455,10.168000120162963,15.91200006866455,7.960000120162964,15.91200006866455ZM3.2000001201629638,13.00800006866455C4.4800001201629644,14.224000068664552,6.184000120162964,14.91200006866455,7.960000120162964,14.91200006866455C9.736000120162963,14.91200006866455,11.440000120162964,14.224000068664552,12.720000120162965,13.00800006866455C11.440000120162964,11.792000068664551,9.736000120162963,11.10400006866455,7.960000120162964,11.10400006866455C6.184000120162964,11.10400006866455,4.4800001201629644,11.792000068664551,3.2000001201629638,13.00800006866455ZM7.968000120162964,9.384000068664552C6.576000120162964,9.384000068664552,5.4400001201629635,8.24800006866455,5.4400001201629635,6.856000068664551C5.4400001201629635,5.464000068664551,6.576000120162964,4.328000068664551,7.968000120162964,4.328000068664551C9.360000120162963,4.328000068664551,10.496000120162964,5.464000068664551,10.496000120162964,6.856000068664551C10.496000120162964,8.24800006866455,9.368000120162964,9.384000068664552,7.968000120162964,9.384000068664552ZM7.968000120162964,5.328000068664551C7.128000120162964,5.328000068664551,6.4400001201629635,6.0160000686645505,6.4400001201629635,6.856000068664551C6.4400001201629635,7.696000068664551,7.128000120162964,8.384000068664552,7.968000120162964,8.384000068664552C8.808000120162964,8.384000068664552,9.496000120162964,7.696000068664551,9.496000120162964,6.856000068664551C9.496000120162964,6.0160000686645505,8.816000120162965,5.328000068664551,7.968000120162964,5.328000068664551Z" fill="#ABB1B9" fill-opacity="1" style="mix-blend-mode:passthrough"/></g><g><path d="M1.864000003039837,11.239999614715575C1.336000003039837,10.247999614715576,1.0640000030398369,9.143999614715575,1.0640000030398369,8.007999614715576C1.0640000030398369,4.199999614715576,4.160000003039837,1.1119996147155762,7.960000003039837,1.1119996147155762C11.760000003039837,1.1119996147155762,14.856000003039837,4.207999614715576,14.856000003039837,8.007999614715576C14.856000003039837,9.135999614715576,14.576000003039837,10.247999614715576,14.056000003039838,11.231999614715576C14.312000003039836,11.471999614715576,14.552000003039836,11.727999614715577,14.776000003039837,11.999999614715577C15.488000003039836,10.791999614715577,15.856000003039837,9.415999614715576,15.856000003039837,8.007999614715576C15.856000003039837,3.647999614715576,12.312000003039836,0.10399961471557617,7.952000003039837,0.10399961471557617C3.600000003039837,0.11200000471557617,0.06400000303983688,3.655999614715576,0.06400000303983688,8.007999614715576C0.06400000303983688,9.415999614715576,0.4400000030398369,10.799999614715576,1.152000003039837,11.999999614715577C1.368000003039837,11.735999614715576,1.608000003039837,11.479999614715576,1.864000003039837,11.239999614715575Z" fill="#ABB1B9" fill-opacity="1" style="mix-blend-mode:passthrough"/></g></g></svg>