<svg xmlns="http://www.w3.org/2000/svg" xmlns:xlink="http://www.w3.org/1999/xlink" fill="none" version="1.1" width="24.079286575317383" height="17.50460433959961" viewBox="0 0 24.079286575317383 17.50460433959961"><g><path d="M7.79092,14.0253C6.42606,15.2466,5.52098,15.1727,4.59871,14.2473L3.54242,13.1137C2.62012,12.1887,2.62012,10.6887,3.54242,9.76335L8.06313,5.22887C8.9854,4.30352,10.4808,4.30352,11.4031,5.22887L12.2377,6.06616C12.9502,6.78092,13.1125,7.83839,12.7243,8.70938L14.7427,10.2542C16.1263,8.86634,16.1263,6.61633,14.7427,5.2289L12.2377,2.71623C10.8545,1.32839,8.61174,1.32839,7.22811,2.71623L1.03744,8.92608C-0.345812,10.3135,-0.345812,12.5635,1.03744,13.9514L3.54242,16.464C4.92566,17.8515,7.16877,17.8515,8.5524,16.464L10.9422,13.9927L9.23502,12.3545L7.79092,14.0253ZM23.0923,3.55352L20.5877,1.04088C19.2041,-0.346961,16.9613,-0.346961,15.5777,1.04088Q15.6765,1.01599,14.2212,2.47581L15.8847,4.07037L16.624,3.25453C17.5463,2.32958,19.0417,2.32958,19.964,3.25453L20.799,4.0922C21.7213,5.01715,21.7213,6.51716,20.799,7.44252L16.7209,11.6811C15.7986,12.606,14.3036,12.606,13.3813,11.6811L12.6937,10.5474C11.2461,9.46548,11.691,9.20667,11.8139,8.47621L9.97773,6.65844C8.5941,8.04628,8.5941,10.2963,9.97773,11.6837L12.4824,14.1968C13.866,15.5842,16.1087,15.5842,17.4923,14.1968L23.0923,8.57883Q25.0663,6.30276,23.0923,3.55352Z" fill="#F4C134" fill-opacity="1" style="mix-blend-mode:passthrough"/></g></svg>