<svg xmlns="http://www.w3.org/2000/svg" xmlns:xlink="http://www.w3.org/1999/xlink" fill="none" version="1.1" width="24" height="24" viewBox="0 0 24 24"><defs><clipPath id="master_svg0_1_7481"><rect x="0" y="0" width="24" height="24" rx="0"/></clipPath></defs><g clip-path="url(#master_svg0_1_7481)"><g><path d="M20.745611737442015,6.168000253894043L11.920801737442016,11.443203053894042L3.1895997374420166,6.315600053894043C3.0047997374420166,6.206399953894043,2.7755999374420166,6.357600053894043,2.8020000474420166,6.571200053894043L4.101601737442016,17.020763053894044L4.105201737442017,17.02196305389404C4.135201737442017,17.75036305389404,4.723201737442016,18.406763053894043,5.5440017374420165,18.406763053894043L18.204011737442016,18.406763053894043C19.042811737442015,18.406763053894043,19.641611737442016,17.720363053894044,19.64521173744202,16.970363053894044L19.659611737442017,16.969163053894043L21.135611737442016,6.426001053894043C21.164411737442016,6.211200753894043,20.932811737442016,6.056400753894043,20.745611737442015,6.168000253894043Z" fill="#FBDB82" fill-opacity="1" style="mix-blend-mode:passthrough"/></g><g><path d="M11.843996400604247,3.9095997082366942L4.317599400604248,16.216785708236692C3.730799400604248,17.175585708236696,4.420799400604248,18.406785708236693,5.545196400604248,18.406785708236693L18.20403640060425,18.406785708236693C19.312836400604247,18.406785708236693,20.005236400604247,17.204385708236693,19.448436400604248,16.245585708236696L12.287996400604248,3.914399708236694C12.189596400604248,3.7452001082366944,11.945996400604248,3.7428000082366943,11.843996400604247,3.9095997082366942Z" fill="#FBDB82" fill-opacity="1" style="mix-blend-mode:passthrough"/></g><g><path d="M18.341983601379397,18.398402072143554L18.374383601379392,18.394802072143555C18.418783601379396,18.390002072143552,18.463183601379395,18.382802072143555,18.505183601379393,18.374402072143553C18.506383601379394,18.374402072143553,18.507583601379395,18.373202072143556,18.509983601379396,18.373202072143556C18.551983601379394,18.364802072143554,18.592783601379395,18.352802072143554,18.632383601379395,18.340802072143553C18.641983601379394,18.337202072143555,18.651583601379393,18.334802072143553,18.662383601379396,18.331202072143554C18.703183601379394,18.318002072143557,18.742783601379394,18.303602072143555,18.781183601379396,18.285602072143554C18.783583601379394,18.284402072143557,18.784783601379395,18.283202072143553,18.787183601379397,18.283202072143553C18.824383601379395,18.266402072143556,18.860383601379397,18.248402072143556,18.896383601379394,18.229202072143554C18.904783601379393,18.224402072143555,18.913183601379394,18.220802072143556,18.920383601379395,18.216002072143553C18.956383601379393,18.194402072143554,18.992383601379395,18.172802072143554,19.027183601379395,18.148802072143553C19.061883601379392,18.124282072143554,19.095583601379396,18.098252072143552,19.127983601379395,18.070802072143554C19.133983601379395,18.066002072143554,19.139983601379395,18.060002072143554,19.145983601379395,18.055202072143555C19.178383601379394,18.027602072143555,19.208383601379396,17.998802072143555,19.238383601379397,17.967602072143556L19.240783601379395,17.965202072143555C19.269583601379395,17.935202072143554,19.297183601379395,17.904002072143555,19.322383601379393,17.871602072143553C19.325983601379395,17.866802072143557,19.330783601379395,17.862002072143554,19.334383601379393,17.856002072143554C19.387183601379395,17.788802072143554,19.435183601379393,17.715602072143554,19.474783601379393,17.640002072143552C19.477183601379394,17.635202072143557,19.479583601379396,17.631602072143554,19.481983601379394,17.626802072143555C19.522783601379395,17.548802072143555,19.555183601379394,17.468402072143554,19.581583601379393,17.384402072143555L19.585183601379395,17.373602072143555C19.610383601379397,17.288402072143555,19.628383601379394,17.200802072143553,19.637983601379396,17.112002072143554C19.637983601379396,17.109602072143556,19.639183601379393,17.106002072143554,19.639183601379393,17.103602072143556C19.643983601379396,17.058002072143555,19.646383601379394,17.013602072143556,19.646383601379394,16.968002072143555C19.647583601379395,16.725602072143555,19.586383601379396,16.477202072143555,19.449583601379395,16.242002072143556L15.440383601379395,9.337202072143555L11.920793601379394,11.443202072143555L8.474393601379393,9.418802272143555L4.317596601379394,16.215602072143554C4.168234801379395,16.456832072143555,4.094664601379394,16.737322072143556,4.106396671379395,17.020802072143553C4.109996791379395,17.112002072143554,4.1219969013793945,17.200802072143553,4.142396401379394,17.288402072143555L4.142396401379394,17.289602072143555C4.162796501379394,17.376002072143557,4.1915965013793945,17.461202072143557,4.2263966013793945,17.541602072143554C4.227596601379394,17.542802072143555,4.227596601379394,17.545202072143553,4.228796601379394,17.546402072143554C4.263596601379395,17.625602072143554,4.306796601379395,17.702402072143556,4.354796601379395,17.774402072143555C4.357196601379394,17.776802072143553,4.358396601379394,17.780402072143552,4.360796601379395,17.782802072143554C4.408796601379395,17.853602072143556,4.463996601379394,17.919602072143554,4.523996601379395,17.980802072143554L4.534796601379394,17.991602072143557C4.562395601379395,18.019202072143557,4.5899966013793945,18.044402072143555,4.619995601379395,18.069602072143553C4.623596601379394,18.073202072143555,4.627195601379395,18.075602072143553,4.630795601379394,18.079202072143556C4.663195601379394,18.105602072143554,4.696795601379394,18.130802072143553,4.730395601379395,18.154802072143553C4.735195601379394,18.158402072143552,4.7411956013793946,18.162002072143554,4.745995601379395,18.165602072143557C4.775996601379394,18.186002072143555,4.8071966013793945,18.204002072143552,4.8383956013793945,18.222002072143553C4.845595601379395,18.225602072143555,4.852795601379395,18.230402072143555,4.859995601379395,18.234002072143554C4.895995601379394,18.253202072143555,4.933195601379395,18.272402072143556,4.971595601379395,18.288002072143556L4.989595601379395,18.295202072143553C5.023195601379395,18.308402072143554,5.056795601379394,18.321602072143556,5.091595601379394,18.332402072143555C5.101195601379395,18.336002072143554,5.110793601379394,18.338402072143555,5.121593601379395,18.342002072143554C5.162393601379394,18.354002072143555,5.203193601379395,18.364802072143554,5.245193601379395,18.373202072143556C5.249993601379394,18.374402072143553,5.2547936013793946,18.374402072143553,5.259593601379395,18.375602072143554C5.309673601379394,18.384922072143553,5.360113601379394,18.392132072143554,5.410793601379394,18.397202072143557C5.455193601379395,18.400802072143556,5.499593601379394,18.404402072143554,5.5451936013793945,18.404402072143554L18.203983601379395,18.404402072143554C18.250783601379396,18.405602072143555,18.296383601379397,18.403202072143557,18.341983601379397,18.398402072143554Z" fill="#F4C134" fill-opacity="1" style="mix-blend-mode:passthrough"/></g><g><path d="M13.792800019836426,3.925200020599365Q13.792800019836426,4.010030020599365,13.784490019836426,4.0944600205993655Q13.776170019836426,4.178880020599365,13.759620019836426,4.262080020599365Q13.743070019836425,4.345280020599365,13.718440019836425,4.426460020599365Q13.693820019836426,4.507640020599365,13.661350019836426,4.586020020599365Q13.628890019836426,4.664390020599365,13.588900019836426,4.739210020599366Q13.548910019836425,4.814020020599365,13.501780019836426,4.884560020599365Q13.454650019836425,4.955090020599365,13.400830019836427,5.020670020599365Q13.347020019836426,5.0862500205993655,13.287030019836426,5.146230020599365Q13.227050019836426,5.206220020599366,13.161470019836425,5.260030020599365Q13.095890019836425,5.313850020599365,13.025360019836427,5.360980020599365Q12.954820019836426,5.408110020599365,12.880010019836426,5.448100020599365Q12.805190019836425,5.4880900205993655,12.726820019836426,5.520550020599366Q12.648440019836425,5.553020020599366,12.567260019836425,5.577640020599365Q12.486080019836425,5.602270020599365,12.402880019836426,5.618820020599365Q12.319680019836426,5.635370020599366,12.235260019836426,5.643690020599365Q12.150830019836427,5.652000020599365,12.066000019836427,5.652000020599365Q11.981170019836426,5.652000020599365,11.896740019836425,5.643690020599365Q11.812320019836426,5.635370020599366,11.729120019836426,5.618820020599365Q11.645920019836426,5.602270020599365,11.564740019836426,5.577640020599365Q11.483560019836426,5.553020020599366,11.405180019836425,5.520550020599366Q11.326807019836426,5.4880900205993655,11.251991019836426,5.448100020599365Q11.177176019836425,5.408110020599365,11.106640019836426,5.360980020599365Q11.036105019836425,5.313850020599365,10.970529019836427,5.260030020599365Q10.904953019836427,5.206220020599366,10.844967019836426,5.146230020599365Q10.784982019836425,5.0862500205993655,10.731165019836427,5.020670020599365Q10.677348019836426,4.955090020599365,10.630217019836426,4.884560020599365Q10.583087019836427,4.814020020599365,10.543097019836425,4.739210020599366Q10.503108019836425,4.664390020599365,10.470644019836426,4.586020020599365Q10.438180019836425,4.507640020599365,10.413554519836426,4.426460020599365Q10.388929019836425,4.345280020599365,10.372379019836426,4.262080020599365Q10.355829119836425,4.178880020599365,10.347514079836426,4.0944600205993655Q10.339199066162426,4.010030020599365,10.339199066162426,3.925200020599365Q10.339199066162426,3.840370020599365,10.347514079836426,3.755940020599365Q10.355829119836425,3.671520020599365,10.372379019836426,3.5883200205993653Q10.388929019836425,3.5051200205993656,10.413554519836426,3.4239400205993653Q10.438180019836425,3.342760020599365,10.470644019836426,3.264380020599365Q10.503108019836425,3.1860070205993654,10.543097019836425,3.1111920205993653Q10.583087019836427,3.036377020599365,10.630217019836426,2.965841020599365Q10.677348019836426,2.8953060205993655,10.731165019836427,2.8297300205993654Q10.784982019836425,2.764153020599365,10.844967019836426,2.704168020599365Q10.904953019836427,2.644182020599365,10.970529019836427,2.5903660205993653Q11.036105019836425,2.5365490205993653,11.106640019836426,2.4894180205993655Q11.177176019836425,2.4422880205993653,11.251991019836426,2.4022980205993654Q11.326807019836426,2.362309020599365,11.405180019836425,2.329845020599365Q11.483560019836426,2.297380920599365,11.564740019836426,2.272755420599365Q11.645920019836426,2.2481299205993652,11.729120019836426,2.2315800205993654Q11.812320019836426,2.2150300205993654,11.896740019836425,2.2067150305993652Q11.981170019836426,2.1984000205993652,12.066000019836427,2.1984000205993652Q12.150830019836427,2.1984000205993652,12.235260019836426,2.2067150305993652Q12.319680019836426,2.2150300205993654,12.402880019836426,2.2315800205993654Q12.486080019836425,2.2481299205993652,12.567260019836425,2.272755420599365Q12.648440019836425,2.297380920599365,12.726820019836426,2.329845020599365Q12.805190019836425,2.362309020599365,12.880010019836426,2.4022980205993654Q12.954820019836426,2.4422880205993653,13.025360019836427,2.4894180205993655Q13.095890019836425,2.5365490205993653,13.161470019836425,2.5903660205993653Q13.227050019836426,2.644182020599365,13.287030019836426,2.704168020599365Q13.347020019836426,2.764153020599365,13.400830019836427,2.8297300205993654Q13.454650019836425,2.8953060205993655,13.501780019836426,2.965841020599365Q13.548910019836425,3.036377020599365,13.588900019836426,3.1111920205993653Q13.628890019836426,3.1860070205993654,13.661350019836426,3.264380020599365Q13.693820019836426,3.342760020599365,13.718440019836425,3.4239400205993653Q13.743070019836425,3.5051200205993656,13.759620019836426,3.5883200205993653Q13.776170019836426,3.671520020599365,13.784490019836426,3.755940020599365Q13.792800019836426,3.840370020599365,13.792800019836426,3.925200020599365Z" fill="#FBDB82" fill-opacity="1" style="mix-blend-mode:passthrough"/></g><g><path d="M12.065999987792969,5.652000567169189C12.45359998779297,5.652000567169189,12.809999987792969,5.522400567169189,13.097999987792969,5.30760056716919L12.28919998779297,3.9144005671691895C12.19079998779297,3.7452001671691892,11.947199987792969,3.7416000671691894,11.84399998779297,3.9095995671691894L11.002799987792969,5.2848005671691896C11.29679998779297,5.514000567169189,11.665199987792969,5.652000567169189,12.065999987792969,5.652000567169189Z" fill="#F4C134" fill-opacity="1" style="mix-blend-mode:passthrough"/></g><g><path d="M22.734000048828126,5.912399690246582Q22.734000048828126,5.985969690246582,22.726790048828125,6.059189690246582Q22.719580048828124,6.132409690246583,22.705220048828124,6.204569690246582Q22.690870048828124,6.276729690246582,22.669510048828126,6.347129690246582Q22.648160048828125,6.417529690246582,22.620000048828125,6.485509690246582Q22.591850048828125,6.553479690246582,22.557160048828123,6.6183596902465816Q22.522480048828125,6.683249690246582,22.481610048828124,6.744419690246582Q22.440730048828126,6.805589690246582,22.394060048828123,6.8624696902465825Q22.347390048828125,6.9193396902465825,22.295360048828126,6.971359690246582Q22.243340048828124,7.0233896902465816,22.186470048828124,7.070059690246582Q22.129590048828124,7.116729690246582,22.068420048828123,7.1576096902465824Q22.007250048828126,7.198479690246582,21.942360048828125,7.233169690246582Q21.877480048828126,7.267849690246582,21.809510048828123,7.295999690246582Q21.741530048828125,7.3241596902465815,21.671130048828125,7.3455096902465815Q21.600730048828126,7.366869690246582,21.528570048828126,7.381219690246581Q21.456410048828126,7.395579690246582,21.383190048828126,7.402789690246582Q21.309970048828124,7.409999690246583,21.236400048828123,7.409999690246583Q21.162830048828123,7.409999690246583,21.089610048828124,7.402789690246582Q21.016390048828125,7.395579690246582,20.944230048828125,7.381219690246581Q20.872070048828125,7.366869690246582,20.801670048828125,7.3455096902465815Q20.731265048828124,7.3241596902465815,20.663293048828123,7.295999690246582Q20.595321048828126,7.267849690246582,20.530436048828125,7.233169690246582Q20.465551048828125,7.198479690246582,20.404378048828125,7.1576096902465824Q20.343205048828125,7.116729690246582,20.286332048828125,7.070059690246582Q20.229460048828123,7.0233896902465816,20.177437048828125,6.971359690246582Q20.125413048828126,6.9193396902465825,20.078739048828126,6.8624696902465825Q20.032066048828124,6.805589690246582,19.991191048828124,6.744419690246582Q19.950316048828125,6.683249690246582,19.915635048828126,6.6183596902465816Q19.880953048828125,6.553479690246582,19.852798048828124,6.485509690246582Q19.824643148828127,6.417529690246582,19.803286148828125,6.347129690246582Q19.781929248828124,6.276729690246582,19.767576048828126,6.204569690246582Q19.753222748828126,6.132409690246583,19.746011398828124,6.059189690246582Q19.738800048828125,5.985969690246582,19.738800048828125,5.912399690246582Q19.738800048828125,5.838829690246582,19.746011398828124,5.765609690246582Q19.753222748828126,5.692389690246582,19.767576048828126,5.620229690246582Q19.781929248828124,5.548069690246582,19.803286148828125,5.477669690246582Q19.824643148828127,5.407264690246582,19.852798048828124,5.339292690246582Q19.880953048828125,5.271320690246582,19.915635048828126,5.2064356902465825Q19.950316048828125,5.141550690246582,19.991191048828124,5.080377690246582Q20.032066048828124,5.019204690246582,20.078739048828126,4.962332690246582Q20.125413048828126,4.905459690246582,20.177437048828125,4.853436690246582Q20.229460048828123,4.801412690246582,20.286332048828125,4.754739690246582Q20.343205048828125,4.708065690246582,20.404378048828125,4.667190690246582Q20.465551048828125,4.626315690246582,20.530436048828125,4.591634690246582Q20.595321048828126,4.5569526902465824,20.663293048828123,4.528797690246582Q20.731265048828124,4.500642790246582,20.801670048828125,4.479285790246582Q20.872070048828125,4.457928890246582,20.944230048828125,4.443575690246582Q21.016390048828125,4.429222390246582,21.089610048828124,4.422011040246582Q21.162830048828123,4.414799690246582,21.236400048828123,4.414799690246582Q21.309970048828124,4.414799690246582,21.383190048828126,4.422011040246582Q21.456410048828126,4.429222390246582,21.528570048828126,4.443575690246582Q21.600730048828126,4.457928890246582,21.671130048828125,4.479285790246582Q21.741530048828125,4.500642790246582,21.809510048828123,4.528797690246582Q21.877480048828126,4.5569526902465824,21.942360048828125,4.591634690246582Q22.007250048828126,4.626315690246582,22.068420048828123,4.667190690246582Q22.129590048828124,4.708065690246582,22.186470048828124,4.754738690246582Q22.243340048828124,4.801412690246582,22.295360048828126,4.853436690246582Q22.347390048828125,4.905459690246582,22.394060048828123,4.962331690246582Q22.440730048828126,5.019204690246582,22.481610048828124,5.080377690246582Q22.522480048828125,5.141550690246582,22.557160048828123,5.2064356902465825Q22.591850048828125,5.271320690246582,22.620000048828125,5.339292690246582Q22.648160048828125,5.407264690246582,22.669510048828126,5.477669690246582Q22.690870048828124,5.548069690246582,22.705220048828124,5.620229690246582Q22.719580048828124,5.692389690246582,22.726790048828125,5.765609690246582Q22.734000048828126,5.838829690246582,22.734000048828126,5.912399690246582Z" fill="#FBDB82" fill-opacity="1" style="mix-blend-mode:passthrough"/></g><g><path d="M20.74559928076172,6.168000177056885L19.93560028076172,6.652800577056885C20.15640028076172,7.039200577056885,20.54400028076172,7.317602577056885,21.000000280761718,7.389602577056885L21.134400280761717,6.426000577056885C21.16440028076172,6.211200277056885,20.932800280761718,6.056400277056885,20.74559928076172,6.168000177056885Z" fill="#F4C134" fill-opacity="1" style="mix-blend-mode:passthrough"/></g><g><path d="M4.256400070381165,6.019199769592285Q4.256400070381165,6.0927697695922856,4.2491900703811645,6.165989769592285Q4.241980070381165,6.239209769592286,4.227620070381164,6.311369769592285Q4.2132700703811645,6.383529769592285,4.191910070381164,6.4539297695922855Q4.170560070381164,6.524329769592285,4.142400070381164,6.592309769592285Q4.114250070381164,6.660279769592285,4.079570070381164,6.725159769592285Q4.044880070381165,6.790049769592285,4.004010070381165,6.851219769592285Q3.9631300703811645,6.912399769592286,3.9164600703811647,6.969269769592286Q3.8697900703811645,7.026139769592286,3.8177600703811647,7.078159769592285Q3.7657400703811645,7.130189769592285,3.7088700703811646,7.176859769592285Q3.6520000703811646,7.223529769592285,3.5908200703811644,7.264409769592286Q3.5296500703811646,7.3052797695922855,3.4647600703811645,7.339969769592285Q3.3998800703811645,7.374649769592285,3.3319100703811646,7.402799769592285Q3.2639300703811647,7.430959769592285,3.193530070381165,7.452309769592285Q3.1231300703811646,7.473669769592285,3.0509700703811644,7.4880197695922845Q2.9788100703811646,7.502379769592285,2.9055900703811646,7.509589769592285Q2.8323700703811645,7.516799769592286,2.758800070381165,7.516799769592286Q2.6852300703811647,7.516799769592286,2.6120100703811646,7.509589769592285Q2.5387900703811646,7.502379769592285,2.4666300703811643,7.4880197695922845Q2.3944700703811646,7.473669769592285,2.3240700703811648,7.452309769592285Q2.2536650703811647,7.430959769592285,2.1856930703811646,7.402799769592285Q2.1177210703811644,7.374649769592285,2.0528360703811646,7.339969769592285Q1.9879510703811647,7.3052797695922855,1.9267780703811646,7.264409769592286Q1.8656050703811644,7.223529769592285,1.8087330703811646,7.176859769592285Q1.7518600703811646,7.130189769592285,1.6998370703811645,7.078159769592285Q1.6478130703811646,7.026139769592286,1.6011400703811645,6.969269769592286Q1.5544660703811646,6.912399769592286,1.5135910703811646,6.851219769592285Q1.4727160703811646,6.790049769592285,1.4380350703811646,6.725159769592285Q1.4033530703811645,6.660279769592285,1.3751980703811646,6.592309769592285Q1.3470431703811645,6.524329769592285,1.3256861703811647,6.4539297695922855Q1.3043292703811646,6.383529769592285,1.2899760703811645,6.311369769592285Q1.2756227703811645,6.239209769592286,1.2684114203811645,6.165989769592285Q1.2612000703811646,6.0927697695922856,1.2612000703811646,6.019199769592285Q1.2612000703811646,5.945629769592285,1.2684114203811645,5.872409769592285Q1.2756227703811645,5.799189769592285,1.2899760703811645,5.727029769592285Q1.3043292703811646,5.654869769592285,1.3256861703811647,5.584469769592285Q1.3470431703811645,5.514064769592285,1.3751980703811646,5.446092769592285Q1.4033530703811645,5.378120769592285,1.4380350703811646,5.313235769592286Q1.4727160703811646,5.248350769592285,1.5135910703811646,5.187177769592285Q1.5544660703811646,5.126004769592285,1.6011400703811645,5.069132769592285Q1.6478130703811646,5.012259769592285,1.6998370703811645,4.960236769592285Q1.7518600703811646,4.908212769592285,1.8087330703811646,4.8615397695922855Q1.8656050703811644,4.814865769592285,1.9267780703811646,4.773990769592285Q1.9879510703811647,4.733115769592285,2.0528360703811646,4.698434769592285Q2.1177210703811644,4.663752769592286,2.1856930703811646,4.635597769592285Q2.2536650703811647,4.607442869592285,2.3240700703811648,4.586085869592285Q2.3944700703811646,4.564728969592285,2.4666300703811643,4.550375769592285Q2.5387900703811646,4.536022469592285,2.6120100703811646,4.5288111195922856Q2.6852300703811647,4.521599769592285,2.758800070381165,4.521599769592285Q2.8323700703811645,4.521599769592285,2.9055900703811646,4.5288111195922856Q2.9788100703811646,4.536022469592285,3.0509700703811644,4.550375769592285Q3.1231300703811646,4.564728969592285,3.193530070381165,4.586085869592285Q3.2639300703811647,4.607442869592285,3.3319100703811646,4.635597769592285Q3.3998800703811645,4.663752769592286,3.4647600703811645,4.698434769592285Q3.5296500703811646,4.733115769592285,3.5908200703811644,4.773990769592285Q3.6520000703811646,4.814865769592285,3.7088700703811646,4.8615397695922855Q3.7657400703811645,4.908212769592285,3.8177600703811647,4.960236769592285Q3.8697900703811645,5.012259769592285,3.9164600703811647,5.069132769592285Q3.9631300703811645,5.126004769592285,4.004010070381165,5.187177769592285Q4.044880070381165,5.248350769592285,4.079570070381164,5.313235769592286Q4.114250070381164,5.378120769592285,4.142400070381164,5.446092769592285Q4.170560070381164,5.514064769592285,4.191910070381164,5.584469769592285Q4.2132700703811645,5.654869769592285,4.227620070381164,5.727029769592285Q4.241980070381165,5.799189769592285,4.2491900703811645,5.872409769592285Q4.256400070381165,5.945629769592285,4.256400070381165,6.019199769592285Z" fill="#FBDB82" fill-opacity="1" style="mix-blend-mode:passthrough"/></g><g><path d="M3.1895997374420166,6.315599928967285C3.0047997374420166,6.2063999289672855,2.7755999374420166,6.357599728967285,2.8020000474420166,6.571200128967285L2.9183997374420168,7.508398128967285C3.3875997374420166,7.4591981289672855,3.7919997374420165,7.191600128967285,4.029601737442016,6.810000128967285L3.1895997374420166,6.315599928967285Z" fill="#F4C134" fill-opacity="1" style="mix-blend-mode:passthrough"/></g><g><path d="M18.42239987411499,21.576000817871094L5.48879987411499,21.576000817871094C4.93199987411499,21.576000817871094,4.48199987411499,21.124800817871094,4.48199987411499,20.569200817871092C4.48199987411499,20.012399817871092,4.93319987411499,19.562400817871094,5.48879987411499,19.562400817871094L18.42239987411499,19.562400817871094C18.97919987411499,19.562400817871094,19.429199874114992,20.013600817871094,19.429199874114992,20.569200817871092C19.429199874114992,21.124800817871094,18.97919987411499,21.576000817871094,18.42239987411499,21.576000817871094Z" fill="#F4C134" fill-opacity="1" style="mix-blend-mode:passthrough"/></g><g><path d="M14.876400286865234,16.827600402832033L9.019200286865235,16.827600402832033C8.488800286865235,16.827600402832033,8.059200286865234,16.398000402832032,8.059200286865234,15.867600402832032C8.059200286865234,15.337200402832032,8.488800286865235,14.907600402832031,9.019200286865235,14.907600402832031L14.876400286865234,14.907600402832031C15.406800286865234,14.907600402832031,15.836400286865235,15.337200402832032,15.836400286865235,15.867600402832032C15.836400286865235,16.398000402832032,15.406800286865234,16.827600402832033,14.876400286865234,16.827600402832033Z" fill="#181A20" fill-opacity="1" style="mix-blend-mode:passthrough"/></g></g></svg>