<svg xmlns="http://www.w3.org/2000/svg" xmlns:xlink="http://www.w3.org/1999/xlink" fill="none" version="1.1" width="16" height="16" viewBox="0 0 16 16"><defs><clipPath id="master_svg0_24_7896"><rect x="16" y="16" width="16" height="16" rx="0"/></clipPath></defs><g transform="matrix(0,-1,-1,0,32,32)" clip-path="url(#master_svg0_24_7896)"><g><path d="M23.528593492279054,21.528595492279052C23.788943492279053,21.268246092279053,24.211053492279053,21.268246092279053,24.47140349227905,21.528595492279052C24.47140349227905,21.528595492279052,28.47140349227905,25.528593492279054,28.47140349227905,25.528593492279054C28.731733492279055,25.788943492279053,28.731733492279055,26.211053492279053,28.47140349227905,26.47140349227905C28.211063492279052,26.731753492279054,27.788933492279053,26.731753492279054,27.528603492279053,26.47140349227905C27.528603492279053,26.47140349227905,24.000003492279053,22.942803492279054,24.000003492279053,22.942803492279054C24.000003492279053,22.942803492279054,20.47140349227905,26.47140349227905,20.47140349227905,26.47140349227905C20.211053492279053,26.731753492279054,19.788944492279054,26.731753492279054,19.528595492279052,26.47140349227905C19.268246092279053,26.211053492279053,19.268246092279053,25.788943492279053,19.528595492279052,25.528593492279054C19.528595492279052,25.528593492279054,23.528593492279054,21.528595492279052,23.528593492279054,21.528595492279052C23.528593492279054,21.528595492279052,23.528593492279054,21.528595492279052,23.528593492279054,21.528595492279052Z" fill-rule="evenodd" fill="#FFFFFF" fill-opacity="1"/></g></g></svg>