<svg xmlns="http://www.w3.org/2000/svg" xmlns:xlink="http://www.w3.org/1999/xlink" fill="none" version="1.1" width="23.999998092651367" height="24" viewBox="0 0 23.999998092651367 24"><defs><clipPath id="master_svg0_112_7150"><rect x="0" y="0" width="23.999998092651367" height="24" rx="0"/></clipPath></defs><g clip-path="url(#master_svg0_112_7150)"><g><rect x="0" y="0" width="23.999998092651367" height="23.999998092651367" rx="11.999999046325684" fill="#000000" fill-opacity="1" style="mix-blend-mode:passthrough"/></g><g><path d="M14.56378125,2.2259874640625L8.08203125,13.1570931640625L11.84450125,13.1570931640625L8.89076825,21.8687931640625L16.25172125,10.3917331640625L11.95778125,10.3917331640625L14.58749125,2.1304931640625" fill="#F4C134" fill-opacity="1" style="mix-blend-mode:passthrough"/></g><g><path d="M14.985806875,3.535247802734375L14.300896875,5.753347802734375C17.022686874999998,6.726717802734375,18.839186875,9.305287802734375,18.839166875,12.195587802734375C18.839516875,15.973147802734376,15.777326875,19.035647802734374,11.999796875,19.035647802734374C11.886526875,19.035647802734374,11.773256875,19.035647802734374,11.661296875,19.027047802734373L10.310546875,21.200347802734374C10.867655875,21.303947802734374,11.433136875,21.356047802734373,11.999796875,21.355747802734374C17.058476875,21.355747802734374,21.159346875,17.254947802734375,21.159346875,12.196237802734375C21.159146874999998,8.288097802734374,18.680136875000002,4.810237802734375,14.985806875,3.535247802734375Z" fill="#F4C134" fill-opacity="1" style="mix-blend-mode:passthrough"/></g><g><path d="M11.99988203125,3.036712646484375C6.94120203125,3.036710636654375,2.84033203125,7.137582646484375,2.84033203125,12.196252646484375C2.84034810985,15.936912646484375,5.11438203125,19.302012646484375,8.58513203125,20.697212646484374L9.32010203125,18.570612646484374L9.32997203125,18.494912646484373C6.80180203125,17.422412646484375,5.15983203125,14.942012646484375,5.15983203125,12.195592646484375C5.1594620312499995,8.418432646484375,8.221962031250001,5.356232646484375,11.99986203125,5.356232646484375L12.01896203125,5.356232646484375L13.31043203125,3.1295727464843752C12.87633203125,3.067581646484375,12.43837203125,3.036549850484375,11.99988203125,3.036712646484375Z" fill="#F4C134" fill-opacity="1" style="mix-blend-mode:passthrough"/></g></g></svg>