<svg xmlns="http://www.w3.org/2000/svg" xmlns:xlink="http://www.w3.org/1999/xlink" fill="none" version="1.1" width="23.963111877441406" height="22.170289993286133" viewBox="0 0 23.963111877441406 22.170289993286133"><g><path d="M13.3729,14.6701L16.2975,14.6701L16.2975,19.1514Q16.2975,19.9297,16.0617,20.5075Q15.8258,21.0854,15.4367,21.4509Q15.0475,21.8165,14.5286,21.9934Q14.0097,22.1703,13.4201,22.1703L2.99535,22.1703Q2.4293,22.1703,1.88683,21.9462Q1.34437,21.7222,0.931624,21.3212Q0.518879,20.9203,0.25944,20.3778Q-1.11759e-7,19.8353,0,19.1749L0,2.90101Q0,2.33496,0.271232,1.81608Q0.542465,1.2972,0.967002,0.896246Q1.39154,0.495294,1.91042,0.247647Q2.4293,-8.9407e-8,2.94818,0L13.3022,0Q13.9154,0,14.4579,0.271232Q15.0003,0.542465,15.4131,0.955209Q15.8258,1.36795,16.0617,1.88683Q16.2975,2.40571,16.2975,2.90101L16.2975,7.24072L13.3729,7.24072L13.3965,2.73591L2.97176,2.73591L2.94818,19.1749L13.3729,19.1749L13.3729,14.6701ZM23.5147,10.2597Q24.3873,10.9672,23.5618,11.6512Q23.0901,12.005,22.5359,12.5239Q21.9816,13.0427,21.3802,13.597Q20.7788,14.1513,20.1891,14.6937Q19.5995,15.2362,19.1042,15.6371Q18.5617,16.0617,18.1726,16.0617Q17.7834,16.0617,17.7834,15.4956Q17.8306,15.1654,17.7952,14.6701Q17.7598,14.1748,17.7598,13.8211Q17.7598,13.4201,17.4768,13.3258Q17.1938,13.2314,16.7928,13.2314L15.8494,13.2314L14.4107,13.2314Q13.6088,13.2314,12.7243,13.2196Q11.8399,13.2078,11.038,13.2078L9.59927,13.2078L8.63226,13.2078Q8.44358,13.2078,8.21952,13.1725Q7.99546,13.1371,7.81857,13.0192Q7.64167,12.9012,7.53554,12.689Q7.42941,12.4767,7.42941,12.1465Q7.42941,11.6984,7.41761,11.0851Q7.40582,10.4719,7.42941,10.0002Q7.42941,9.36341,7.73602,9.12756Q8.04263,8.8917,8.7266,8.91529L9.50492,8.91529L10.8729,8.91529Q11.6276,8.91529,12.4885,8.92708Q13.3493,8.93887,14.1277,8.93887L15.5428,8.93887L16.439,8.93887Q17.0287,8.96246,17.4414,8.84453Q17.8542,8.7266,17.8542,8.32565Q17.8542,7.99546,17.8777,7.58271Q17.9013,7.16997,17.9013,6.83977Q17.9013,6.29731,18.1961,6.15579Q18.491,6.01428,18.9391,6.36806Q19.3872,6.74543,19.9886,7.25252Q20.5901,7.7596,21.2033,8.29027Q21.8165,8.82095,22.4179,9.33982Q23.0194,9.8587,23.5147,10.2597Z" fill="#F4C134" fill-opacity="1" style="mix-blend-mode:passthrough"/></g></svg>