<svg xmlns="http://www.w3.org/2000/svg" xmlns:xlink="http://www.w3.org/1999/xlink" fill="none" version="1.1" width="21.818178176879883" height="4.363594055175781" viewBox="0 0 21.818178176879883 4.363594055175781"><g><path d="M0,2.1818C0,3.3818,0.98182,4.36359,2.18182,4.36359C3.38182,4.36359,4.36362,3.3818,4.36362,2.1818C4.36362,0.981797,3.38182,0,2.18182,0C0.98182,0,0.0000232458,0.981797,0,2.1818ZM8.72728,2.1818C8.72728,3.3818,9.70908,4.36359,10.9091,4.36359C12.1091,4.36359,13.0909,3.3818,13.0909,2.1818C13.0909,0.981797,12.1091,0,10.9091,0C9.7091,0,8.72728,0.981797,8.72728,2.1818ZM17.4545,2.1818C17.4545,3.3818,18.4364,4.36359,19.6364,4.36359C20.8364,4.36359,21.8182,3.3818,21.8182,2.1818C21.8182,0.981797,20.8364,0,19.6364,0C18.4364,0,17.4545,0.981797,17.4545,2.1818Z" fill="#5D6167" fill-opacity="1" style="mix-blend-mode:passthrough"/></g></svg>