<svg xmlns="http://www.w3.org/2000/svg" xmlns:xlink="http://www.w3.org/1999/xlink" fill="none" version="1.1" width="19" height="19.06285285949707" viewBox="0 0 19 19.06285285949707"><g><path d="M10.5205,0.328353L17.8535,5.5916C18.5732,6.10832,19,6.93981,19,7.82535L19,16.3129C19,17.8316,17.7688,19.0629,16.25,19.0629L12.5,19.0629L12.5,15.0629C12.5,13.4061,11.1568,12.0629,9.5,12.0629C7.84325,12.0629,6.5,13.4061,6.5,15.0629L6.5,19.0629L2.75,19.0629C1.23125,19.0629,0,17.8316,0,16.3129L0,7.8256C0.0000377655,6.93974,0.426819,6.10814,1.1465,5.5916L8.4795,0.328353C9.0894,-0.109451,9.9106,-0.109451,10.5205,0.328353Z" fill="#F4C134" fill-opacity="1" style="mix-blend-mode:passthrough"/></g></svg>