<svg xmlns="http://www.w3.org/2000/svg" xmlns:xlink="http://www.w3.org/1999/xlink" fill="none" version="1.1" width="16" height="16" viewBox="0 0 16 16"><defs><clipPath id="master_svg0_1_31"><rect x="0" y="0" width="16" height="16" rx="0"/></clipPath></defs><g clip-path="url(#master_svg0_1_31)"><g><path d="M8,0.000335766C3.58189,0.000335766,0.000335693,3.58189,0.000335693,8C0.000335693,12.4181,3.58189,15.9997,8,15.9997C12.418,15.9997,15.9997,12.4181,15.9997,8C15.9997,3.58189,12.418,0.000335766,8,0.000335766ZM10.1646,12.4897C9.69413,12.6523,9.32445,12.7777,9.04305,12.8666C8.76556,12.9554,8.43978,12.9998,8.0701,12.9998C7.50322,12.9998,7.06073,12.8739,6.74734,12.6298C6.42966,12.3784,6.27287,12.068,6.27287,11.6833C6.27287,11.5354,6.28486,11.3874,6.30876,11.2322C6.33326,11.0771,6.37317,10.8994,6.42166,10.707L7.00834,8.85054C7.06073,8.67335,7.03104,8.51076,7.06753,8.34776C7.10373,8.19257,7.11962,8.04467,7.11962,7.91918C7.11962,7.67469,7.14202,7.51209,7.03323,7.42319C6.92043,7.3271,6.71585,7.35469,6.40606,7.35469C6.25286,7.35469,6.09617,7.3767,5.93957,7.41369C5.77879,7.45819,5.64219,7.42319,5.52939,7.46769L5.68658,6.89072C6.06825,6.75013,6.43794,6.63194,6.78813,6.53573C7.13802,6.43233,7.4713,6.38794,7.78109,6.38794C8.34788,6.38794,8.78256,6.50644,9.08784,6.75053C9.39333,6.99462,9.73111,7.3124,9.73111,7.69709C9.73111,7.77858,9.71861,7.91918,9.69861,8.12617C9.6787,8.32576,9.63831,8.51076,9.58192,8.68064L8.81006,10.5294C8.76556,10.6773,8.72165,10.8476,8.68526,11.04C8.64486,11.225,8.62497,11.3728,8.62497,11.469C8.62497,11.7131,8.68926,11.8829,8.81006,11.9718C8.93476,12.0602,9.14785,12.1046,9.44913,12.1046C9.58993,12.1046,9.75102,12.0826,9.9316,12.0386C10.1123,11.9942,10.241,11.9571,10.3214,11.92L10.1646,12.4897ZM10.0603,4.98993C9.79093,5.21933,9.46163,5.33011,9.07956,5.33011C8.69777,5.33011,8.36799,5.21933,8.0904,4.98993C7.81702,4.76784,7.68042,4.49446,7.68042,4.16887C7.68042,3.85059,7.81702,3.57679,8.0904,3.34781C8.36799,3.11881,8.69778,3.00022,9.07956,3.00022C9.46114,3.00022,9.79093,3.11832,10.0603,3.34781C10.3337,3.57721,10.4706,3.85109,10.4706,4.16887C10.4706,4.49444,10.3337,4.76784,10.0603,4.98993Z" fill="#F4C134" fill-opacity="1" style="mix-blend-mode:passthrough"/></g></g></svg>