<svg xmlns="http://www.w3.org/2000/svg" xmlns:xlink="http://www.w3.org/1999/xlink" fill="none" version="1.1" width="23.999998092651367" height="24" viewBox="0 0 23.999998092651367 24"><g><path d="M16.2857,7.35429C15.5863,3.03429,13.9303,0,12.0051,0C10.08,0,8.42229,3.03429,7.72114,7.35429L16.2857,7.35429ZM8.57829,0.502286C5.13362,1.52788,2.32906,4.04186,0.934286,7.35429L6.16286,7.35429C6.58286,4.60114,7.39543,2.13771,8.57657,0.502285L8.57829,0.502286ZM23.0743,7.35429C21.677,4.04172,18.8709,1.52806,15.4251,0.502286C16.6046,2.13771,17.4189,4.59943,17.844,7.35429L23.0726,7.35429L23.0743,7.35429ZM5.80971,12C5.80971,10.9611,5.868,9.91714,5.96914,8.904L0.416571,8.904C0.144192,9.9136,0.00416216,10.9543,0,12C0,13.0731,0.154286,14.1051,0.416571,15.096L5.96229,15.096C5.8627,14.067,5.81121,13.0338,5.808,12L5.80971,12ZM7.356,12C7.356,13.0749,7.416,14.1051,7.51714,15.096L16.4829,15.096C16.5857,14.1017,16.644,13.0731,16.644,12C16.644,10.9286,16.5857,9.89486,16.4829,8.904L7.51714,8.904C7.41429,9.89486,7.356,10.9269,7.356,12ZM23.5869,8.904L18.0377,8.904C18.1406,9.92057,18.1989,10.9611,18.1989,12C18.1989,13.0389,18.1389,14.0829,18.0377,15.096L23.5834,15.096C23.8491,14.1017,24,13.0731,24,12C24,10.9286,23.8491,9.89486,23.5869,8.904ZM15.4286,23.4943C18.8726,22.4661,21.6773,19.9532,23.076,16.6423L17.8457,16.6423C17.4189,19.3989,16.6097,21.8623,15.4286,23.4943ZM0.934286,16.6457C2.33158,19.9583,5.13766,22.4719,8.58343,23.4977C7.40057,21.8623,6.588,19.4006,6.16286,16.6457L0.934286,16.6457ZM7.71943,16.6457C8.42229,20.9657,10.08,24,12.0034,24C13.9286,24,15.5829,20.9657,16.2857,16.6457L7.71943,16.6457Z" fill="#F4C134" fill-opacity="1" style="mix-blend-mode:passthrough"/></g></svg>