<svg xmlns="http://www.w3.org/2000/svg" xmlns:xlink="http://www.w3.org/1999/xlink" fill="none" version="1.1" width="42" height="42" viewBox="0 0 42 42"><defs><clipPath id="master_svg0_1_09868"><rect x="0" y="0" width="42" height="42" rx="0"/></clipPath></defs><g clip-path="url(#master_svg0_1_09868)"><g><path d="M21.000068359375,2.5201416015625C21.927908359375,2.5201416015625,22.680068359375,3.2723036015625,22.680068359375,4.2001416015625L22.680068359375,9.240141601562499C22.680068359375,10.1679816015625,21.927908359375,10.9201416015625,21.000068359375,10.9201416015625C20.072229359375,10.9201416015625,19.320068359375,10.1679816015625,19.320068359375,9.240141601562499L19.320068359375,4.2001416015625C19.320068359375,3.2723036015625,20.072229359375,2.5201416015625,21.000068359375,2.5201416015625Z" fill="#282B30" fill-opacity="1" style="mix-blend-mode:passthrough"/></g><g><path d="M30.239931796875,4.995614671875C31.043421796875002,5.459549671875,31.318701796875,6.4869836718750005,30.854811796875,7.290493671875L28.334811796875,11.655973671875C27.874061796875,12.466323671875,26.841641796875,12.746613671875,26.034354796875,12.280513671875C25.227067696875,11.814413671875,24.953618796875,10.780163671875,25.425047796875,9.975973671875L27.945051796875,5.610493671875C28.408981796875,4.807002671875,29.436421796875,4.531715671875,30.239931796875,4.995614671875Z" fill="#272B30" fill-opacity="1" style="mix-blend-mode:passthrough"/></g><g><path d="M37.004427734375,11.7600298046875C37.468327734375,12.5635398046875,37.193047734375,13.5909798046875,36.389557734375,14.054909804687501L32.024077734375,16.5749098046875C31.221267734375,17.0313698046875,30.200544734375,16.7542598046875,29.738785734375,15.954489804687501C29.277023734375,15.154719804687499,29.547374534375,14.1321898046875,30.344074734375,13.6651498046875L34.709557734375,11.1451498046875C35.513067734375,10.6812518046875,36.540497734375,10.9565392046875,37.004427734375,11.7600298046875Z" fill="#303338" fill-opacity="1" style="mix-blend-mode:passthrough"/></g><g><path d="M39.479833984375,21.000068359375C39.479833984375,21.927908359375,38.727673984375,22.680068359375,37.799833984375,22.680068359375L32.759833984375,22.680068359375C31.831996984375,22.680068359375,31.079833984375,21.927908359375,31.079833984375,21.000068359375C31.079833984375,20.072229359375,31.831996984375,19.320068359375,32.759833984375,19.320068359375L37.799833984375,19.320068359375C38.727673984375,19.320068359375,39.479833984375,20.072229359375,39.479833984375,21.000068359375Z" fill="#3F4348" fill-opacity="1" style="mix-blend-mode:passthrough"/></g><g><path d="M37.004654765625,30.239931796875C36.540724765625,31.043421796875002,35.513294765625,31.318701796875,34.709774765625,30.854811796875L30.344298765625,28.334811796875C29.533948865625,27.874051796875,29.253664765625,26.841641796875,29.719765765625,26.034354796875C30.185866765625,25.227067696875,31.220114765625,24.953618796875,32.024294765625,25.425047796875L36.389774765625,27.945051796875C37.193274765625,28.408981796875,37.468564765625,29.436421796875,37.004654765625,30.239931796875Z" fill="#666666" fill-opacity="1" style="mix-blend-mode:passthrough"/></g><g><path d="M30.239798125,37.0045498046875C29.436288125,37.4684498046875,28.408858125000002,37.1931698046875,27.944928125,36.3896798046875L25.424923125,32.0241998046875C24.968461125,31.2213898046875,25.245569825,30.2006668046875,26.045341125,29.7389048046875C26.845108125,29.2771458046875,27.867648125,29.5474966046875,28.334688125,30.3441968046875L30.854688125,34.7096798046875C31.318578125000002,35.5131898046875,31.043288125,36.5406198046875,30.239798125,37.0045498046875Z" fill="#888888" fill-opacity="1" style="mix-blend-mode:passthrough"/></g><g><path d="M21.000068359375,39.480078125C20.072229359375,39.480078125,19.320068359375,38.727918125,19.320068359375,37.800078125L19.320068359375,32.760078125C19.320068359375,31.832241125,20.072229359375,31.080078125,21.000068359375,31.080078125C21.927908359375,31.080078125,22.680068359375,31.832241125,22.680068359375,32.760078125L22.680068359375,37.800078125C22.680068359375,38.727918125,21.927908359375,39.480078125,21.000068359375,39.480078125Z" fill="#999999" fill-opacity="1" style="mix-blend-mode:passthrough"/></g><g><path d="M11.759907734375,37.0045326953125C10.956417134375,36.5406026953125,10.681129734375,35.5131726953125,11.145027734375,34.7096526953125L13.665027734375,30.3441766953125C14.125777734375,29.5338267953125,15.158197734375001,29.2535426953125,15.965477734375,29.7196436953125C16.772767734375,30.1857446953125,17.046217734375,31.2199926953125,16.574787734375,32.0241726953125L14.054787734375001,36.3896526953125C13.590857734375,37.1931426953125,12.563417734375,37.4684326953125,11.759907734375,37.0045326953125Z" fill="#ACACAC" fill-opacity="1" style="mix-blend-mode:passthrough"/></g><g><path d="M4.99536853125,30.2399201953125C4.53147253125,29.4364101953125,4.80675893125,28.408980195312502,5.61024853125,27.9450501953125L9.97572953125,25.4250451953125C10.77853953125,24.9685831953125,11.79925953125,25.2456918953125,12.26101953125,26.0454631953125C12.72277953125,26.8452301953125,12.45242953125,27.8677701953125,11.65572953125,28.3348101953125L7.29024953125,30.8548101953125C6.4867395312500005,31.318700195312502,5.45930053125,31.0434101953125,4.99536853125,30.2399201953125Z" fill="#BFBFBF" fill-opacity="1" style="mix-blend-mode:passthrough"/></g><g><path d="M2.52001953125,21.000068359375C2.52001953125,20.072229359375,3.27218153125,19.320068359375,4.20001953125,19.320068359375L9.240019531249999,19.320068359375C10.16785953125,19.320068359375,10.92001953125,20.072229359375,10.92001953125,21.000068359375C10.92001953125,21.927908359375,10.16785953125,22.680068359375,9.240019531249999,22.680068359375L4.20001953125,22.680068359375C3.27218153125,22.680068359375,2.52001953125,21.927908359375,2.52001953125,21.000068359375Z" fill="#CCCCCC" fill-opacity="1" style="mix-blend-mode:passthrough"/></g><g><path d="M4.99536953125,11.7600298046875C5.45930153125,10.9565392046875,6.4867395312500005,10.6812518046875,7.29024953125,11.1451498046875L11.65572953125,13.6651498046875C12.46607953125,14.1258998046875,12.74636953125,15.158319804687501,12.28026953125,15.9656098046875C11.814159531249999,16.7728898046875,10.77991953125,17.0463398046875,9.97572953125,16.5749098046875L5.61024953125,14.054909804687501C4.80675853125,13.5909798046875,4.53147153125,12.5635398046875,4.99536953125,11.7600298046875Z" fill="#E5E5E5" fill-opacity="1" style="mix-blend-mode:passthrough"/></g><g><path d="M11.759907734375,4.995613671875C12.563417734375,4.531715671875,13.590857734375,4.807003071875,14.054787734375001,5.610493671875L16.574787734375,9.975973671875C17.031247734375,10.778783671875,16.754137734375,11.799503671875,15.954367734375001,12.261263671875C15.154597734374999,12.723023671875,14.132067734375,12.452673671875,13.665027734375,11.655973671875L11.145027734375,7.290493671875C10.681130734375,6.4869836718750005,10.956417934375,5.459545671875,11.759907734375,4.995613671875Z" fill="#F2F2F2" fill-opacity="1" style="mix-blend-mode:passthrough"/></g></g></svg>