<svg xmlns="http://www.w3.org/2000/svg" xmlns:xlink="http://www.w3.org/1999/xlink" fill="none" version="1.1" width="106" height="36" viewBox="0 0 106 36"><defs><clipPath id="master_svg0_1_1352"><rect x="0" y="0" width="106" height="36" rx="0"/></clipPath></defs><g clip-path="url(#master_svg0_1_1352)"><g><path d="M45.838582890625,13.509078979492188C47.768542890625,13.509078979492188,48.549982890625,14.520408979492188,48.549982890625,16.42852897949219L48.549982890625,17.49572897949219C48.549982890625,19.419208979492186,47.768532890624996,20.47244897949219,45.838582890625,20.47244897949219L40.616512890625,20.47244897949219L40.616512890625,23.16839897949219C40.616512890625,23.382118979492187,40.527612890625,23.48268897949219,40.339782890625,23.48268897949219L38.976193890625,23.48268897949219C38.788360690625,23.48268897949219,38.699462890625,23.382118979492187,38.699462890625,23.16839897949219L38.699462890625,13.936518979492188Q38.699462890625,13.509078979492188,39.078000890625,13.509078979492188L45.838582890625,13.509078979492188ZM45.447142890625,18.507058979492186C46.307452890625,18.507058979492186,46.620032890625,18.122918979492187,46.620032890625,17.283408979492187L46.620032890625,16.74281897949219C46.620032890625,15.887938979492187,46.304582890625,15.503798979492188,45.447142890625,15.503798979492188L40.781402890625,15.503798979492188C40.666692890625,15.503798979492188,40.616502890625,15.561068979492187,40.616502890625,15.674218979492188L40.616502890625,18.50845897949219L45.447142890625,18.507058979492186Z" fill="#F4C134" fill-opacity="1" style="mix-blend-mode:passthrough"/></g><g><path d="M51.4493148046875,13.509078979492188C51.6385748046875,13.509078979492188,51.7274748046875,13.608255179492188,51.7274748046875,13.821974979492188L51.7274748046875,23.16839897949219C51.7274748046875,23.382118979492187,51.6385748046875,23.48268897949219,51.4493148046875,23.48268897949219L50.0871558046875,23.48268897949219C49.8978874046875,23.48268897949219,49.8104248046875,23.382118979492187,49.8104248046875,23.16839897949219L49.8104248046875,13.821974979492188C49.8104248046875,13.608255179492188,49.8978874046875,13.509078979492188,50.0871558046875,13.509078979492188L51.4493148046875,13.509078979492188Z" fill="#F4C134" fill-opacity="1" style="mix-blend-mode:passthrough"/></g><g><path d="M60.16843203125,13.509078979492188C60.35770203125,13.509078979492188,60.455202031249996,13.608255179492188,60.455202031249996,13.821974979492188L60.455202031249996,19.71813897949219C60.455202031249996,22.437838979492188,59.48305203125,23.478498979492187,56.92363203125,23.478498979492187L53.14974903125,23.478498979492187C52.97338803125,23.478498979492187,52.87158203125,23.37792897949219,52.87158203125,23.164208979492187L52.87158203125,21.77152897949219C52.87158203125,21.557808979492187,52.97338803125,21.458638979492186,53.14974903125,21.458638979492186L56.84907203125,21.458638979492186C58.14814203125,21.458638979492186,58.52667203125,21.017228979492188,58.52667203125,19.503028979492186L58.52667203125,13.821974979492188C58.52667203125,13.608255179492188,58.61414203125,13.509078979492188,58.80340203125,13.509078979492188L60.16843203125,13.509078979492188Z" fill="#F4C134" fill-opacity="1" style="mix-blend-mode:passthrough"/></g><g><path d="M70.55389296875,13.509078979492188C70.72595296875,13.509078979492188,70.82202296875,13.608255179492188,70.82202296875,13.821974979492188L70.82202296875,15.206268979492187C70.82202296875,15.406018979492188,70.72595296875,15.519168979492187,70.55389296875,15.519168979492187L64.45287296875,15.519168979492187C64.01412296875,15.519168979492187,63.80764296875,15.762218979492188,63.80764296875,16.288838979492187L63.80764296875,16.773548979492187C63.80764296875,17.286198979492188,64.00264296875,17.49851897949219,64.45287296875,17.49851897949219L69.00821296875,17.49851897949219C70.37180296875,17.49851897949219,71.13890296875,18.41067897949219,71.13890296875,20.005898979492187L71.13890296875,21.159708979492187C71.13890296875,22.626418979492186,70.38469296875,23.481298979492188,68.98813296875,23.481298979492188L62.23614496875,23.481298979492188C62.05404346875,23.481298979492188,61.96801616875,23.380718979492187,61.96801616875,23.16699897949219L61.96801616875,21.78549897949219C61.96801616875,21.587148979492188,62.05404346875,21.472608979492186,62.23614496875,21.472608979492186L68.62823296875,21.472608979492186C69.05839296875,21.472608979492186,69.27346296875,21.230948979492187,69.27346296875,20.70432897949219L69.27346296875,20.12043897949219C69.27346296875,19.607788979492188,69.08993296875,19.39406897949219,68.63971296875,19.39406897949219L64.07577296875,19.39406897949219C62.71074796875,19.39406897949219,61.95654296875,18.481918979492185,61.95654296875,16.886698979492188L61.95654296875,15.832068979492188C61.95654296875,14.365357979492188,62.69927496875,13.511871169492187,64.10014296875,13.511871169492187L70.55389296875,13.509078979492188Z" fill="#F4C134" fill-opacity="1" style="mix-blend-mode:passthrough"/></g><g><path d="M73.5147628125,15.65884510734375C73.6558828125,15.64677262734375,73.7800928125,15.74897122734375,73.7914928125,15.88653452734375L75.4260828125,21.74079552734375C75.4375528125,21.81203552734375,75.4734028125,21.83997552734375,75.5221528125,21.83997552734375L75.6067528125,21.83997552734375C75.6540728125,21.83997552734375,75.6899128125,21.81203552734375,75.7142828125,21.74079552734375L77.3244928125,16.34331252734375C77.4678828125,15.84463052734375,77.6370728125,15.65884936734375,78.0930328125,15.65884936734375L79.5598528125,15.65884936734375C80.0158228125,15.65884936734375,80.1964828125,15.84463052734375,80.3398728125,16.34331252734375L81.9171028125,21.74079552734375C81.9285728125,21.81203552734375,81.9658528125,21.83997552734375,82.0246828125,21.83997552734375L82.0977828125,21.83997552734375C82.1450828125,21.83997552734375,82.16948281250001,21.81203552734375,82.1937828125,21.74079552734375L83.8757828125,15.88653852734375C83.88308281249999,15.74696762734375,84.0099828125,15.64251392734375,84.1524828125,15.65884936734375L85.4041828125,15.65884936734375C85.5848828125,15.65884936734375,85.6680828125,15.77339352734375,85.5963828125,16.01504852734375L83.66778281250001,22.59567552734375C83.4756828125,23.26477552734375,83.2720828125,23.47849552734375,82.7429828125,23.47849552734375L81.27760281249999,23.47849552734375C80.8331128125,23.47849552734375,80.6524428125,23.25080552734375,80.4717828125,22.59567552734375L78.9519028125,17.39654552734375C78.9275328125,17.33927552734375,78.9045828125,17.31133552734375,78.8443728125,17.31133552734375L78.7597628125,17.31133552734375C78.6995528125,17.31133552734375,78.6751728125,17.33927552734375,78.6637028125,17.39654552734375L77.0965128125,22.59567552734375C76.9043728125,23.23543552734375,76.7351728125,23.47849552734375,76.2906928125,23.47849552734375L74.8138228125,23.47849552734375C74.2847328125,23.47849552734375,74.0969028125,23.26477552734375,73.8875628125,22.59567552734375L72.0235585125,16.01504352734375C71.9647746125,15.77338452734375,72.0479315125,15.65884510734375,72.2285978125,15.65884510734375L73.5147628125,15.65884510734375Z" fill="#F4C134" fill-opacity="1" style="mix-blend-mode:passthrough"/></g><g><path d="M92.1518761328125,15.658859252929688C94.3843761328125,15.658859252929688,95.1543461328125,16.44249825292969,95.1543461328125,18.536399252929687L95.1543461328125,22.338669252929687C95.1543461328125,23.250819252929688,94.9650861328125,23.478509252929687,94.2209161328125,23.478509252929687L88.2173961328125,23.478509252929687C86.7663441328125,23.478509252929687,86.2745361328125,22.919769252929687,86.2745361328125,21.45584925292969L86.2745361328125,20.771389252929687C86.2745361328125,19.447159252929687,86.8480751328125,18.80738925292969,88.2173961328125,18.80738925292969L93.3634761328125,18.80738925292969L93.3634761328125,18.667709252929686C93.3634761328125,17.756949252929687,93.0594961328125,17.428689252929686,91.9755161328125,17.428689252929686L86.7161631328125,17.428689252929686C86.5641761328125,17.428689252929686,86.4896131328125,17.343479252929686,86.4896131328125,17.173069252929686L86.4896131328125,15.915886252929688C86.4896131328125,15.744070252929687,86.5641761328125,15.658863515819688,86.7161631328125,15.658863515819688L92.1518761328125,15.658859252929688ZM93.3634761328125,21.31336925292969L93.3634761328125,20.274099252929688L88.7464861328125,20.274099252929688C88.2044861328125,20.274099252929688,88.0524961328125,20.444519252929688,88.0524961328125,20.87195925292969L88.0524961328125,21.170889252929687C88.0524961328125,21.655599252929687,88.2044861328125,21.782719252929688,88.7464861328125,21.782719252929688L92.9720261328125,21.782719252929688C93.2487661328125,21.782719252929688,93.3634761328125,21.655599252929687,93.3634761328125,21.31336925292969Z" fill="#F4C134" fill-opacity="1" style="mix-blend-mode:passthrough"/></g><g><path d="M102.9975555859375,15.658859252929688C105.2042455859375,15.658859252929688,105.9986055859375,16.41456325292969,105.9986055859375,18.536399252929687L105.9986055859375,20.600969252929687C105.9986055859375,22.722809252929686,105.2042455859375,23.478509252929687,102.9975555859375,23.478509252929687L98.2658555859375,23.478509252929687L98.2658555859375,26.312759252929688C98.2658555859375,26.526459252929687,98.1783955859375,26.625659252929687,97.9891155859375,26.625659252929687L96.7531425859375,26.625659252929687C96.5638733859375,26.625659252929687,96.4749755859375,26.526459252929687,96.4749755859375,26.312759252929688L96.4749755859375,18.536399252929687C96.4749755859375,16.41456325292969,97.2578595859375,15.658859252929688,99.4645555859375,15.658859252929688L102.9975555859375,15.658859252929688ZM102.8211955859375,21.712869252929686C103.9180855859375,21.712869252929686,104.2077255859375,21.412549252929686,104.2077255859375,20.202859252929688L104.2077255859375,18.934509252929686C104.2077255859375,17.73878925292969,103.9209555859375,17.42449925292969,102.8211955859375,17.42449925292969L99.6423655859375,17.42449925292969C98.5583655859375,17.42449925292969,98.2673055859375,17.73878925292969,98.2673055859375,18.934509252929686L98.2673055859375,21.71287925292969L102.8211955859375,21.712869252929686Z" fill="#F4C134" fill-opacity="1" style="mix-blend-mode:passthrough"/></g><g><path d="M6.4723629296875,30.17086984863281C-0.04473107031250001,24.587569848632814,-1.0896970703125,15.073269848632812,4.0673029296875,8.273009848632812C9.2242929296875,1.4727928486328126,18.8664529296875,-0.3495201513671873,26.2594529296875,4.078819848632813L25.8292529296875,4.752109848632813C18.7959529296875,0.5448198486328124,9.6274329296875,2.2809138486328124,4.723852929687499,8.748519848632814C-0.1797230703125,15.216169848632813,0.8128119296875,24.263769848632812,7.0086229296875,29.575769848632813L6.4723629296875,30.17086984863281Z" fill="#F4C134" fill-opacity="1" style="mix-blend-mode:passthrough"/></g><g><path d="M17.497324492187502,34.21757927246094C14.4095444921875,34.22097927246094,11.3815044921875,33.388679272460934,8.7508544921875,31.813579272460938L9.1810084921875,31.138879272460937C16.2363844921875,35.356179272460935,25.4328544921875,33.59317927246094,30.3221544921875,27.08627927246094C35.2114544921875,20.579279272460937,34.1571544921875,11.506119272460937,27.8984544921875,6.228635272460938L28.4318544921875,5.6293792724609375C33.708154492187504,10.078099272460937,35.5913544921875,17.25247927246094,33.154854492187496,23.62267927246094C30.7178544921875,29.99307927246094,24.4748544921875,34.21757927246094,17.497324492187502,34.21757927246094Z" fill="#F4C134" fill-opacity="1" style="mix-blend-mode:passthrough"/></g><g><path d="M0,36.000007299804686L12.354,23.964617299804686L5.72392,17.506907299804688L8.60452,14.700607299804688L9.17949,15.260750299804688L6.87386,17.506907299804688L13.504,23.964617299804686L3.4527,33.756607299804685L21.8662,26.363007299804686L19.4616,24.020487299804685L20.0366,23.46034729980469L23.3043,26.643807299804685L0,36.000007299804686Z" fill="#F4C134" fill-opacity="1" style="mix-blend-mode:passthrough"/></g><g><path d="M26.3556265625,21.2994L25.7820265625,20.7393L28.0862265625,18.4931L21.4575665625,12.0354L31.5088265625,2.24336L13.0939365625,9.63697L15.4984965625,11.9795L14.923526562500001,12.5397L11.6572265625,9.3562L34.9601265625,0L22.6075265625,12.0354L29.2362265625,18.4931L26.3556265625,21.2994Z" fill="#F4C134" fill-opacity="1" style="mix-blend-mode:passthrough"/></g><g><path d="M17.497187421874997,25.865737280273436L9.360107421875,17.938547280273436L17.497187421874997,10.011337280273438L25.634307421875,17.938547280273436L17.497187421874997,25.865737280273436ZM10.510047421875,17.938547280273436L17.497187421874997,24.745437280273435L24.484307421875002,17.938547280273436L17.497187421874997,11.131617280273437L10.510047421875,17.938547280273436Z" fill="#F4C134" fill-opacity="1" style="mix-blend-mode:passthrough"/></g><g transform="matrix(0.7162836790084839,-0.6978091597557068,0.7162837386131287,0.6978091597557068,-20.760541827334237,15.066528334147733)"><rect x="7.716064453125" y="32.03997802734375" width="6.178556442260742" height="0.8025753498077393" rx="0" fill="#F4C134" fill-opacity="1" style="mix-blend-mode:passthrough"/></g><g transform="matrix(0.7162837386131287,-0.6978092193603516,0.7162837386131287,0.6978091597557068,0.7447819090621124,17.79574702336231)"><rect x="22.1527099609375" y="7.7347869873046875" width="6.29603910446167" height="0.8025753498077393" rx="0" fill="#F4C134" fill-opacity="1" style="mix-blend-mode:passthrough"/></g><g><path d="M8.108601171875,28.52253264160156C3.570038171875,24.701832641601563,1.947631171875,18.53523264160156,4.040151171875,13.058732641601562C6.132211171874999,7.582552641601563,11.498661171875,3.9503326416015625,17.497451171875,3.9503326416015625L17.497451171875,4.742356641601562C11.835271171875,4.738814641601563,6.768251171875,8.166612641601564,4.793601171875,13.336412641601562C2.818940171875,18.506232641601564,4.353331171875,24.327132641601562,8.640561171875,27.930332641601563L8.108601171875,28.52253264160156Z" fill="#F4C134" fill-opacity="1" style="mix-blend-mode:passthrough"/></g><g><path d="M17.497314453125,31.926797241210938L17.497314453125,31.130497241210936C23.130334453125002,31.130497241210936,28.175414453125,27.73419724121094,30.167514453125,22.601097241210937C32.159614453125,17.467997241210938,30.682914453125,11.669587241210937,26.458864453125003,8.038965241210937L26.996554453125,7.4452972412109375C31.477214453125,11.293207241210938,33.044714453124996,17.44156724121094,30.932714453125,22.884597241210937C28.820714453125,28.327697241210938,23.470354453125,31.928497241210938,17.497314453125,31.926797241210938Z" fill="#F4C134" fill-opacity="1" style="mix-blend-mode:passthrough"/></g><g><ellipse cx="17.75521969795227" cy="4.345632314682007" rx="1.0008251667022705" ry="0.9750115871429443" fill="#F4C134" fill-opacity="1" style="mix-blend-mode:passthrough"/></g><g><ellipse cx="17.34677243232727" cy="31.531408071517944" rx="1.0008251667022705" ry="0.9750115871429443" fill="#F4C134" fill-opacity="1" style="mix-blend-mode:passthrough"/></g><g><ellipse cx="25.361772418022156" cy="21.764533519744873" rx="1.2273730039596558" ry="1.195716381072998" fill="#F4C134" fill-opacity="1" style="mix-blend-mode:passthrough"/></g><g><ellipse cx="13.134233355522156" cy="27.19139814376831" rx="1.2273730039596558" ry="1.195716381072998" fill="#F4C134" fill-opacity="1" style="mix-blend-mode:passthrough"/></g><g><ellipse cx="9.605424761772156" cy="14.211692333221436" rx="1.2273730039596558" ry="1.195716381072998" fill="#F4C134" fill-opacity="1" style="mix-blend-mode:passthrough"/></g><g><ellipse cx="21.894853472709656" cy="8.68010663986206" rx="1.2273730039596558" ry="1.195716381072998" fill="#F4C134" fill-opacity="1" style="mix-blend-mode:passthrough"/></g><g><path d="M19.9290711328125,19.44713261230469C19.9211111328125,19.408452612304686,19.8829211328125,19.383022612304686,19.843041132812502,19.389862612304686C19.7486711328125,19.408142612304687,19.6521211328125,19.413312612304686,19.5562711328125,19.405222612304687C19.4564711328125,19.40677261230469,19.3618211328125,19.362222612304688,19.3010411328125,19.285092612304688C19.2510711328125,19.12119261230469,19.2302211328125,18.950172612304687,19.2393911328125,18.77943261230469C19.2594611328125,18.43999261230469,19.232221132812498,18.09916261230469,19.2393911328125,17.75832261230469C19.2494211328125,17.379772612304688,19.2551611328125,16.999822612304687,19.2895711328125,16.621272612304686C19.2996111328125,16.513715612304686,19.3039111328125,16.499746612304687,19.411451132812502,16.499746612304687C19.6279611328125,16.499746612304687,19.8416011328125,16.499746612304687,20.0624211328125,16.499746612304687C20.1444911328125,16.49984461230469,20.2099111328125,16.432933612304687,20.2058011328125,16.353077612304688C20.1914611328125,16.137958612304686,20.2058011328125,15.922844612304688,20.2058011328125,15.707726312304688C20.2058011328125,15.682583712304687,20.2058011328125,15.656043012304687,20.1900311328125,15.633692612304687C20.1602311328125,15.621240722304687,20.1275311328125,15.616896832304688,20.0954011328125,15.621121352304687L14.8847955328125,15.621121352304687C14.8330829328125,15.621112832304688,14.7909443928125,15.661546412304688,14.7901611328125,15.711916712304687L14.7901611328125,15.783158612304687C14.7901611328125,15.952177612304688,14.7901611328125,16.12259561230469,14.7901611328125,16.293012612304686C14.7901611328125,16.519304612304687,14.7901611328125,16.471811612304688,15.1342831328125,16.481590612304686C15.3407581328125,16.481590612304686,15.5486671328125,16.481590612304686,15.7551371328125,16.481590612304686C15.8110611328125,16.481590612304686,15.8397311328125,16.499750612304688,15.8354311328125,16.55702261230469C15.8340011328125,16.580749612304686,15.8340011328125,16.60453661230469,15.8354311328125,16.628262612304688C15.8225311328125,17.16605261230469,15.801021132812501,17.703852612304686,15.7522711328125,18.240242612304687C15.7164251328125,18.63276261230469,15.6762771328125,19.025282612304686,15.6088861328125,19.416412612304686C15.5744751328125,19.637112612304687,15.5443611328125,19.859212612304688,15.5085151328125,20.07992261230469C15.4970461328125,20.146972612304687,15.5085151328125,20.17630261230469,15.5888101328125,20.18049261230469C15.8870511328125,20.193062612304686,16.1852911328125,20.21262261230469,16.4835311328125,20.229382612304686C16.6039711328125,20.229382612304686,16.6039711328125,20.229382612304686,16.6140111328125,20.119032612304686C16.6455511328125,19.767022612304686,16.6742311328125,19.420602612304688,16.7100811328125,19.06021261230469C16.7602611328125,18.582482612304688,16.7961111328125,18.103352612304686,16.8219211328125,17.622832612304688C16.8391211328125,17.270822612304688,16.8620711328125,16.92440261230469,16.8563311328125,16.56540761230469C16.8524611328125,16.542127612304686,16.8559611328125,16.518251612304688,16.8663711328125,16.49696261230469C16.8898811328125,16.50287561230469,16.9145511328125,16.50287561230469,16.9380611328125,16.49696261230469C17.3538711328125,16.49696261230469,17.7711211328125,16.49696261230469,18.1869411328125,16.49696261230469L18.2027111328125,16.49696261230469C18.214661132812502,16.528652612304686,18.2181211328125,16.562785612304687,18.2127511328125,16.59613861230469Q18.1955411328125,17.573942612304688,18.1769011328125,18.544762612304687C18.147841132812502,18.876712612304686,18.1700711328125,19.21102261230469,18.2428611328125,19.536542612304686C18.3113511328125,19.842602612304688,18.5367211328125,20.09277261230469,18.8393411328125,20.198652612304688C19.1762911328125,20.313202612304686,19.7928511328125,20.227982612304686,20.0021911328125,20.198652612304688C20.042361132812502,20.19159261230469,20.068821132812502,20.153862612304685,20.0609711328125,20.114842612304688L19.9290711328125,19.44713261230469Z" fill="#F4C134" fill-opacity="1" style="mix-blend-mode:passthrough"/></g></g></svg>